<svg width="205" height="114" fill="none" xmlns="http://www.w3.org/2000/svg"><path d="M6.896 43.568h4.048v1.664H6.896v4.032h-1.76v-4.032H1.088v-1.664h4.048v-4.032h1.76v4.032ZM11.749 40.56V38.8h10.176v1.504l-4.048 4.544c-.336.4-.56.768-.672 1.104-.112.336-.16.816-.16 1.44V50h-2.016v-2.576c0-.848.08-1.52.24-2 .144-.48.464-.976.944-1.504l3.056-3.36h-7.52ZM33.472 51.6h-1.44c-2.448 0-3.68-1.232-3.68-3.68v-7.04c0-2.448 1.232-3.68 3.68-3.68h1.44v1.568h-1.2c-1.44 0-2.16.72-2.16 2.16v6.944c0 1.44.72 2.16 2.16 2.16h1.2V51.6ZM43.76 44.144c.817.256 1.233.928 1.233 2.032v1.552c0 1.552-.736 2.272-2.273 2.272h-5.44c-1.535 0-2.272-.72-2.272-2.272v-1.552c0-1.104.416-1.776 1.232-2.032-.72-.272-1.072-.928-1.072-1.968v-1.104c0-1.552.736-2.272 2.273-2.272h5.12c1.535 0 2.272.72 2.272 2.272v1.104c0 1.04-.352 1.696-1.072 1.968Zm-6.607-2.704v.96c0 .784.272 1.088 1.087 1.088h3.52c.817 0 1.089-.304 1.089-1.088v-.96c0-.816-.272-1.088-1.088-1.088h-3.52c-.816 0-1.088.272-1.088 1.088Zm5.855 5.92v-1.392c0-.816-.272-1.088-1.088-1.088h-3.84c-.816 0-1.087.272-1.087 1.088v1.392c0 .816.271 1.088 1.087 1.088h3.84c.816 0 1.088-.272 1.088-1.088ZM52.896 38.8v9.568h3.584V50h-9.856v-1.632h4.288v-7.76l-3.808.368V39.28l4.864-.48h.928ZM67.894 48.32V50H58.15v-3.44c0-1.52.672-2.112 2.272-2.368l4.576-.736c.816-.128 1.088-.4 1.088-1.184v-.768c0-.784-.272-1.088-1.088-1.088h-3.616c-.816 0-1.088.304-1.088 1.088v.544h-1.92v-.976c0-1.552.736-2.272 2.272-2.272h5.152c1.536 0 2.272.72 2.272 2.272v1.552c0 1.52-.672 2.112-2.272 2.368l-4.576.736c-.816.128-1.088.4-1.088 1.184v1.408h7.76ZM69.637 37.2h1.44c2.448 0 3.68 1.232 3.68 3.68v7.04c0 2.448-1.232 3.68-3.68 3.68h-1.44v-1.568h1.2c1.44 0 2.16-.72 2.16-2.16v-6.944c0-1.44-.72-2.16-2.16-2.16h-1.2V37.2ZM90.05 45.84h2.432v1.552H90.05V50h-1.92v-2.608h-6.944v-1.296l6.656-7.296h2.208v7.04Zm-1.92-5.296-4.816 5.296h4.816v-5.296ZM103.894 48.32V50H94.15v-3.44c0-1.52.672-2.112 2.272-2.368l4.576-.736c.816-.128 1.088-.4 1.088-1.184v-.768c0-.784-.272-1.088-1.088-1.088h-3.616c-.816 0-1.088.304-1.088 1.088v.544h-1.92v-.976c0-1.552.736-2.272 2.272-2.272h5.152c1.536 0 2.272.72 2.272 2.272v1.552c0 1.52-.672 2.112-2.272 2.368l-4.576.736c-.816.128-1.088.4-1.088 1.184v1.408h7.76ZM113.956 45.84h2.432v1.552h-2.432V50h-1.92v-2.608h-6.944v-1.296l6.656-7.296h2.208v7.04Zm-1.92-5.296-4.816 5.296h4.816v-5.296ZM117.768 45.232v-1.664h5.184v1.664h-5.184ZM133.495 44.144c.816.256 1.232.928 1.232 2.032v1.552c0 1.552-.736 2.272-2.272 2.272h-5.44c-1.536 0-2.272-.72-2.272-2.272v-1.552c0-1.104.416-1.776 1.232-2.032-.72-.272-1.072-.928-1.072-1.968v-1.104c0-1.552.736-2.272 2.272-2.272h5.12c1.536 0 2.272.72 2.272 2.272v1.104c0 1.04-.352 1.696-1.072 1.968Zm-6.608-2.704v.96c0 .784.272 1.088 1.088 1.088h3.52c.816 0 1.088-.304 1.088-1.088v-.96c0-.816-.272-1.088-1.088-1.088h-3.52c-.816 0-1.088.272-1.088 1.088Zm5.856 5.92v-1.392c0-.816-.272-1.088-1.088-1.088h-3.84c-.816 0-1.088.272-1.088 1.088v1.392c0 .816.272 1.088 1.088 1.088h3.84c.816 0 1.088-.272 1.088-1.088ZM142.63 38.8v9.568h3.584V50h-9.856v-1.632h4.288v-7.76l-3.808.368V39.28l4.864-.48h.928ZM146.643 45.232v-1.664h5.184v1.664h-5.184ZM160.594 50h-3.968c-2.048 0-2.976-.928-2.976-2.976v-5.248c0-2.048.928-2.976 2.976-2.976h3.968c2.048 0 2.976.928 2.976 2.976v5.248c0 2.048-.928 2.976-2.976 2.976Zm-3.36-1.696h2.752c1.168 0 1.6-.432 1.6-1.6v-4.608c0-1.168-.432-1.6-1.6-1.6h-2.752c-1.168 0-1.6.432-1.6 1.6v4.608c0 1.168.432 1.6 1.6 1.6ZM174.401 44.144c.816.256 1.232.928 1.232 2.032v1.552c0 1.552-.736 2.272-2.272 2.272h-5.44c-1.536 0-2.272-.72-2.272-2.272v-1.552c0-1.104.416-1.776 1.232-2.032-.72-.272-1.072-.928-1.072-1.968v-1.104c0-1.552.736-2.272 2.272-2.272h5.12c1.536 0 2.272.72 2.272 2.272v1.104c0 1.04-.352 1.696-1.072 1.968Zm-6.608-2.704v.96c0 .784.272 1.088 1.088 1.088h3.52c.816 0 1.088-.304 1.088-1.088v-.96c0-.816-.272-1.088-1.088-1.088h-3.52c-.816 0-1.088.272-1.088 1.088Zm5.856 5.92v-1.392c0-.816-.272-1.088-1.088-1.088h-3.84c-.816 0-1.088.272-1.088 1.088v1.392c0 .816.272 1.088 1.088 1.088h3.84c.816 0 1.088-.272 1.088-1.088ZM3.072 63.976v3.312h7.264V69H1.024V57.8h9.152v1.712H3.072v2.88h6.464v1.584H3.072ZM13.916 57.8v9.376h6.464V69h-8.512V57.8h2.048ZM33.409 69h-2.272l-1.088-2.48h-6.064L22.913 69h-2.176l5.216-11.2h2.256l5.2 11.2Zm-6.384-9.44-2.352 5.408h4.704l-2.352-5.408ZM43.342 65.928V57.8h1.984V69h-1.632l-7.264-8.256V69h-1.984V57.8h1.728l7.168 8.128ZM47.112 64.232v-1.664h5.184v1.664h-5.184ZM61.623 69h-4.704c-2.048 0-2.976-.928-2.976-2.976v-5.248c0-2.048.928-2.976 2.976-2.976h4.704c2.048 0 2.976.928 2.976 2.976v1.184h-1.984v-.832c0-1.168-.432-1.6-1.6-1.6H57.59c-1.168 0-1.6.432-1.6 1.6v4.544c0 1.168.432 1.6 1.6 1.6h3.424c1.168 0 1.6-.432 1.6-1.6v-.976h1.984v1.328c0 2.048-.928 2.976-2.976 2.976ZM74.958 62.232V57.8h2.048V69h-2.048v-4.944h-6.464V69h-2.048V57.8h2.048v4.432h6.464ZM81.103 63.976v3.312h7.264V69h-9.312V57.8h9.152v1.712h-7.104v2.88h6.464v1.584h-6.464ZM97.531 64.68 100.62 69h-2.288l-2.928-4.192h-3.456V69H89.9V57.8h7.584c1.872 0 2.656.752 2.656 2.656v1.568c0 1.872-.752 2.64-2.608 2.656Zm-.8-5.312h-4.784v3.904h4.784c1.04 0 1.36-.304 1.36-1.344v-1.216c0-1.04-.32-1.344-1.36-1.344ZM109.783 57.8h2.288l-4.864 7.072V69h-2.048v-4.128l-4.864-7.072h2.384l3.552 5.392 3.552-5.392ZM113.47 69h-2.368v-2.24h2.368V69ZM123.156 64.68l3.088 4.32h-2.288l-2.928-4.192h-3.456V69h-2.048V57.8h7.584c1.872 0 2.656.752 2.656 2.656v1.568c0 1.872-.752 2.64-2.608 2.656Zm-.8-5.312h-4.784v3.904h4.784c1.04 0 1.36-.304 1.36-1.344v-1.216c0-1.04-.32-1.344-1.36-1.344ZM135.168 69h-4.608c-2.048 0-2.976-.928-2.976-2.976V57.8h2.048v7.84c0 1.168.432 1.6 1.6 1.6h3.264c1.2 0 1.6-.4 1.6-1.6V57.8h2.048v8.224c0 2.048-.928 2.976-2.976 2.976Z" fill="#000"/><path d="M5.712.2H13.2c3.168 0 4.656 1.464 4.656 4.656v7.488c0 3.192-1.488 4.656-4.656 4.656H5.712c-3.168 0-4.656-1.464-4.656-4.656v-2.136H5.04v1.656c0 1.464.528 1.968 1.968 1.968h4.752c1.464 0 1.968-.504 1.968-1.968V9.752H8.352V7.088h5.376V5.336c0-1.464-.504-1.968-1.968-1.968H7.008c-1.44 0-1.968.504-1.968 1.968v1.488H1.056V4.856C1.056 1.664 2.544.2 5.712.2ZM21.22 17h-2.064v-3.504h.624c1.272 0 1.656-.36 1.752-1.68L22.276.2h14.256V17h-4.128V3.848h-6.168l-.576 8.784C25.444 15.728 24.22 17 21.22 17ZM57.46 17h-4.585l-1.224-3.096h-8.088L42.34 17h-4.368L45.411.2h4.632L57.46 17ZM47.594 3.776l-2.808 7.056h5.64l-2.832-7.056ZM70.888 6.44V.2h4.128V17h-4.128v-6.912h-8.064V17h-4.128V.2h4.128v6.24h8.064ZM77.368 10.28V6.92h8.064v3.36h-8.064ZM97.478 9.776 103.526.2h3.456V17h-3.84V6.872l-4.68 7.2h-2.16l-4.68-7.2V17h-3.84V.2h3.624l6.072 9.576ZM121.84 17h-7.728c-3.168 0-4.656-1.464-4.656-4.656V4.856c0-3.192 1.488-4.656 4.656-4.656h7.728c3.168 0 4.656 1.464 4.656 4.656v7.488c0 3.192-1.488 4.656-4.656 4.656Zm-6.288-3.504h4.848c1.464 0 1.968-.528 1.968-1.968V5.672c0-1.44-.504-1.968-1.968-1.968h-4.848c-1.44 0-1.968.528-1.968 1.968v5.856c0 1.44.528 1.968 1.968 1.968ZM127.766.2h15.744v3.648h-5.808V17h-4.128V3.848h-5.808V.2ZM157.161 17h-7.728c-3.168 0-4.656-1.464-4.656-4.656V4.856c0-3.192 1.488-4.656 4.656-4.656h7.728c3.168 0 4.656 1.464 4.656 4.656v7.488c0 3.192-1.488 4.656-4.656 4.656Zm-6.288-3.504h4.848c1.464 0 1.968-.528 1.968-1.968V5.672c0-1.44-.504-1.968-1.968-1.968h-4.848c-1.44 0-1.968.528-1.968 1.968v5.856c0 1.44.528 1.968 1.968 1.968ZM168.41 17h-4.128V.2h11.664c2.952 0 4.176 1.2 4.176 4.176v3.168c0 2.976-1.224 4.176-4.176 4.176h-7.536V17Zm0-13.584v5.232h5.928c1.272 0 1.656-.408 1.656-1.68V5.096c0-1.272-.384-1.68-1.656-1.68h-5.928ZM193.685 17h-7.104c-3.168 0-4.656-1.464-4.656-4.656V4.856c0-3.192 1.488-4.656 4.656-4.656h7.104c3.168 0 4.656 1.464 4.656 4.656v1.968h-3.984v-1.2c0-1.464-.504-1.968-1.968-1.968h-4.368c-1.44 0-1.968.504-1.968 1.968v5.952c0 1.464.528 1.968 1.968 1.968h4.368c1.464 0 1.968-.504 1.968-1.968v-1.368h3.984v2.136c0 3.192-1.488 4.656-4.656 4.656Z" fill="#C51F2A"/><path d="M30.968 98h-6.096v-8.4h7.08v1.212h-5.544v2.232h4.56c1.164 0 1.704.516 1.704 1.704v1.548c0 1.164-.552 1.704-1.704 1.704Zm-4.56-3.864V96.8h3.912c.612 0 .816-.204.816-.816v-1.032c0-.612-.204-.816-.816-.816h-3.912ZM39.953 98h-3.816c-1.536 0-2.232-.696-2.232-2.232v-3.936c0-1.536.696-2.232 2.232-2.232h3.816c1.536 0 2.232.696 2.232 2.232v3.936c0 1.536-.696 2.232-2.232 2.232Zm-3.312-1.32h2.808c.876 0 1.2-.324 1.2-1.2v-3.36c0-.876-.324-1.2-1.2-1.2H36.64c-.876 0-1.2.3-1.2 1.2v3.36c0 .9.324 1.2 1.2 1.2ZM43.61 89.6h6.385v1.368h-4.848V98H43.61v-8.4ZM58.008 98h-1.704l-.816-1.86H50.94L50.136 98h-1.632l3.912-8.4h1.692l3.9 8.4Zm-4.788-7.08-1.764 4.056h3.528L53.22 90.92ZM56.37 89.6h7.728v1.368h-3.096V98h-1.536v-7.032H56.37V89.6ZM65.056 98v-8.4h1.536v2.88h4.152c1.404 0 1.992.564 1.992 1.992v1.536c0 1.428-.588 1.992-1.992 1.992h-5.688Zm8.892 0v-8.4h1.56V98h-1.56Zm-3.768-4.344h-3.588v3.12h3.588c.78 0 1.02-.228 1.02-1.008v-1.104c0-.78-.24-1.008-1.02-1.008ZM78.639 98h-1.536v-8.4h5.688c1.404 0 1.992.564 1.992 1.992v1.536c0 1.428-.588 1.992-1.992 1.992h-4.152V98Zm0-7.176v3.12h3.588c.78 0 1.02-.228 1.02-1.008v-1.104c0-.78-.24-1.008-1.02-1.008h-3.588ZM91.59 98h-3.527c-1.536 0-2.232-.696-2.232-2.232v-3.936c0-1.536.696-2.232 2.232-2.232h3.528c1.536 0 2.232.696 2.232 2.232v.888h-1.488v-.624c0-.876-.324-1.2-1.2-1.2h-2.568c-.876 0-1.2.324-1.2 1.2v3.408c0 .876.324 1.2 1.2 1.2h2.568c.876 0 1.2-.324 1.2-1.2v-.732h1.488v.996c0 1.536-.696 2.232-2.232 2.232ZM98.652 93.656 103.368 98H101.1l-4.356-4.152V98h-1.536v-8.4h1.536v3.936l4.296-3.936h2.28l-4.668 4.056ZM105.696 95.696l5.376-6.096h1.296V98h-1.488v-6.192L105.432 98h-1.224v-8.4h1.488v6.096ZM119.324 89.024h-2.688c-.588 0-.876-.288-.876-.876v-.612h1.032v.432c0 .24.12.36.36.36h1.656c.24 0 .36-.12.36-.36v-.432h1.032v.612c0 .588-.288.876-.876.876Zm-3.936 6.672 5.376-6.096h1.296V98h-1.488v-6.192L115.124 98H113.9v-8.4h1.488v6.096ZM128.725 98h-1.536v-8.4h7.92V98h-1.536v-7.032h-4.848V98ZM138.182 98h-1.536v-8.4h5.688c1.404 0 1.992.564 1.992 1.992v1.536c0 1.428-.588 1.992-1.992 1.992h-4.152V98Zm0-7.176v3.12h3.588c.78 0 1.02-.228 1.02-1.008v-1.104c0-.78-.24-1.008-1.02-1.008h-3.588ZM147.258 98h-1.776v-1.68h1.776V98ZM149.722 99.92h-.924l.612-1.92h-.612v-1.68h1.776v.756c0 .42-.084.816-.24 1.164l-.612 1.68ZM160.104 89.6v7.176h2.688V98H155.4v-1.224h3.216v-5.82l-2.856.276V89.96l3.648-.36h.696ZM166.745 92.852h3.036c1.164 0 1.704.516 1.704 1.704v1.74c0 1.164-.552 1.704-1.704 1.704h-4.032c-1.152 0-1.704-.54-1.704-1.704v-4.464c0-1.536.696-2.232 2.232-2.232h4.848v1.26h-4.392c-.876 0-1.2.324-1.2 1.2v1.2c.228-.276.624-.408 1.212-.408Zm3.252 3.12v-1.104c0-.612-.204-.816-.816-.816h-2.832c-.612 0-.816.204-.816.816v1.104c0 .588.204.816.816.816h2.832c.612 0 .816-.228.816-.816ZM26.408 112h-1.536v-8.4h7.92v8.4h-1.536v-7.032h-4.848V112ZM35.865 112H34.33v-8.4h5.688c1.404 0 1.992.564 1.992 1.992v1.536c0 1.428-.588 1.992-1.992 1.992h-4.152V112Zm0-7.176v3.12h3.588c.78 0 1.02-.228 1.02-1.008v-1.104c0-.78-.24-1.008-1.02-1.008h-3.588ZM44.653 109.696l5.376-6.096h1.296v8.4h-1.488v-6.192L44.39 112h-1.224v-8.4h1.488v6.096ZM60.945 103.6v7.08h.96v2.76h-1.44V112H53.72v1.44h-1.44v-2.76h.48c.768 0 .984-.216 1.02-.984l.396-6.096h6.768Zm-5.292 1.368-.312 4.584c-.036.492-.12.864-.24 1.128h4.308v-5.712h-3.756ZM68.804 112h-3.816c-1.536 0-2.232-.696-2.232-2.232v-3.936c0-1.536.696-2.232 2.232-2.232h3.816c1.536 0 2.232.696 2.232 2.232v3.936c0 1.536-.696 2.232-2.232 2.232Zm-3.312-1.32H68.3c.876 0 1.2-.324 1.2-1.2v-3.36c0-.876-.324-1.2-1.2-1.2h-2.808c-.876 0-1.2.3-1.2 1.2v3.36c0 .9.324 1.2 1.2 1.2ZM73.998 112h-1.536v-8.4h5.688c1.404 0 1.992.564 1.992 1.992v1.536c0 1.428-.588 1.992-1.992 1.992h-4.152V112Zm0-7.176v3.12h3.588c.78 0 1.02-.228 1.02-1.008v-1.104c0-.78-.24-1.008-1.02-1.008h-3.588ZM87.238 112h-3.816c-1.536 0-2.232-.696-2.232-2.232v-3.936c0-1.536.696-2.232 2.232-2.232h3.816c1.536 0 2.232.696 2.232 2.232v3.936c0 1.536-.696 2.232-2.232 2.232Zm-3.312-1.32h2.808c.876 0 1.2-.324 1.2-1.2v-3.36c0-.876-.324-1.2-1.2-1.2h-2.808c-.876 0-1.2.3-1.2 1.2v3.36c0 .9.324 1.2 1.2 1.2ZM99.74 107.656l4.716 4.344h-2.268l-4.356-4.152V112h-1.536v-4.152L91.94 112h-2.268l4.716-4.344-4.668-4.056H92l4.296 3.936V103.6h1.536v3.936l4.296-3.936h2.28l-4.668 4.056ZM111.682 106.924V103.6h1.536v8.4h-1.536v-3.708h-4.848V112h-1.536v-8.4h1.536v3.324h4.848ZM123.563 112h-1.704l-.816-1.86h-4.548l-.804 1.86h-1.632l3.912-8.4h1.692l3.9 8.4Zm-4.788-7.08-1.764 4.056h3.528l-1.764-4.056ZM125.991 103.6h5.688v8.4h-1.536v-3.144h-2.592L125.355 112h-1.716l2.316-3.24c-1.392-.012-1.956-.588-1.956-1.992v-1.176c0-1.428.588-1.992 1.992-1.992Zm.564 4.104h3.588v-2.928h-3.588c-.78 0-1.02.228-1.02 1.008v.912c0 .78.24 1.008 1.02 1.008ZM145.618 112h-1.704l-.816-1.86h-4.548l-.804 1.86h-1.632l3.912-8.4h1.692l3.9 8.4Zm-4.788-7.08-1.764 4.056h3.528l-1.764-4.056ZM146.53 112h-.792v-1.32h.288c.768 0 .984-.216 1.02-.984l.396-6.096h6.768v8.4h-1.536v-7.032h-3.756l-.336 5.016c-.096 1.44-.66 2.016-2.052 2.016ZM155.963 112h-.792v-1.32h.288c.768 0 .984-.216 1.02-.984l.396-6.096h6.768v8.4h-1.536v-7.032h-3.756l-.336 5.016c-.096 1.44-.66 2.016-2.052 2.016ZM166.717 108.232v2.484h5.448V112h-6.984v-8.4h6.864v1.284h-5.328v2.16h4.848v1.188h-4.848ZM175.234 103.6h5.688v8.4h-1.536v-3.144h-2.592L174.598 112h-1.716l2.316-3.24c-1.392-.012-1.956-.588-1.956-1.992v-1.176c0-1.428.588-1.992 1.992-1.992Zm.564 4.104h3.588v-2.928h-3.588c-.78 0-1.02.228-1.02 1.008v.912c0 .78.24 1.008 1.02 1.008ZM183.378 113.92h-.924l.612-1.92h-.612v-1.68h1.776v.756c0 .42-.084.816-.24 1.164l-.612 1.68ZM193.76 103.6v7.176h2.688V112h-7.392v-1.224h3.216v-5.82l-2.856.276v-1.272l3.648-.36h.696ZM202.768 112h-2.976c-1.536 0-2.232-.696-2.232-2.232v-3.936c0-1.536.696-2.232 2.232-2.232h2.976c1.536 0 2.232.696 2.232 2.232v3.936c0 1.536-.696 2.232-2.232 2.232Zm-2.52-1.272h2.064c.876 0 1.2-.324 1.2-1.2v-3.456c0-.876-.324-1.2-1.2-1.2h-2.064c-.876 0-1.2.324-1.2 1.2v3.456c0 .876.324 1.2 1.2 1.2ZM8.5 112S.45 101.5.45 97.05a8.05 8.05 0 1 1 16.1 0C16.55 101.5 8.5 112 8.5 112Zm0-12.65a2.3 2.3 0 1 0 0-4.6 2.3 2.3 0 0 0 0 4.6Z" fill="#000"/></svg>