<svg width="209" height="41" fill="none" xmlns="http://www.w3.org/2000/svg"><path d="M8.294 41H0V29.454h9.633v1.666H2.09v3.068h6.204c1.584 0 2.318.71 2.318 2.342v2.128c0 1.6-.75 2.342-2.318 2.342ZM2.09 35.689v3.662h5.322c.833 0 1.11-.28 1.11-1.122V36.81c0-.84-.277-1.121-1.11-1.121H2.09ZM14.526 35.82v3.415h7.413V41h-9.503V29.454h9.34v1.765h-7.25v2.969h6.596v1.633h-6.596ZM33.02 34.963c.833.264 1.257.957 1.257 2.095v1.6c0 1.6-.75 2.342-2.318 2.342h-6.302c-1.568 0-2.319-.742-2.319-2.342V37.09h2.025v1.138c0 .841.277 1.122 1.11 1.122h4.604c.833 0 1.11-.28 1.11-1.122v-1.336c0-.841-.277-1.122-1.11-1.122H27.91v-1.534h3.004c.833 0 1.11-.28 1.11-1.121v-.89c0-.842-.277-1.123-1.11-1.123h-4.278c-.832 0-1.11.28-1.11 1.122v1.006h-2.024v-1.435c0-1.6.75-2.342 2.318-2.342h5.976c1.567 0 2.318.742 2.318 2.342v1.138c0 1.072-.36 1.749-1.094 2.03ZM43.194 41h-2.09V29.454H51.88V41h-2.09v-9.666h-6.596V41ZM56.06 35.82v3.415h7.413V41h-9.502V29.454h9.339v1.765h-7.25v2.969h6.597v1.633H56.06ZM67.126 41h-2.09V29.454h7.739c1.91 0 2.71.775 2.71 2.738v2.111c0 1.963-.8 2.738-2.71 2.738h-5.65V41Zm0-9.864v4.289h4.882c1.06 0 1.387-.313 1.387-1.386v-1.517c0-1.072-.326-1.386-1.387-1.386h-4.882ZM86.315 34.947c.898.23 1.355.94 1.355 2.11v1.6c0 1.6-.75 2.343-2.318 2.343h-8.294V29.454h7.967c1.568 0 2.319.742 2.319 2.342v1.138c0 1.04-.343 1.7-1.029 2.013Zm-2.171-3.844h-4.996v3.167h4.996c.832 0 1.11-.28 1.11-1.121v-.924c0-.841-.278-1.122-1.11-1.122Zm1.436 7.126v-1.37c0-.84-.277-1.12-1.11-1.12h-5.322v3.612h5.322c.833 0 1.11-.28 1.11-1.122ZM97.576 41h-5.192c-2.09 0-3.037-.957-3.037-3.068v-5.41c0-2.111.947-3.068 3.037-3.068h5.192c2.09 0 3.037.957 3.037 3.068v5.41c0 2.111-.947 3.068-3.037 3.068Zm-4.506-1.814h3.82c1.192 0 1.633-.446 1.633-1.65v-4.618c0-1.204-.44-1.65-1.633-1.65h-3.82c-1.192 0-1.633.413-1.633 1.65v4.618c0 1.237.441 1.65 1.633 1.65ZM102.553 29.454h8.685v1.88h-6.596V41h-2.089V29.454ZM120.44 41h-5.192c-2.09 0-3.037-.957-3.037-3.068v-5.41c0-2.111.947-3.068 3.037-3.068h5.192c2.09 0 3.037.957 3.037 3.068v5.41c0 2.111-.947 3.068-3.037 3.068Zm-4.506-1.814h3.82c1.192 0 1.633-.446 1.633-1.65v-4.618c0-1.204-.441-1.65-1.633-1.65h-3.82c-1.192 0-1.633.413-1.633 1.65v4.618c0 1.237.441 1.65 1.633 1.65ZM139.569 34.947c.898.23 1.355.94 1.355 2.11v1.6c0 1.6-.751 2.343-2.319 2.343h-8.294V29.454h7.968c1.567 0 2.318.742 2.318 2.342v1.138c0 1.04-.343 1.7-1.028 2.013Zm-2.172-3.844h-4.996v3.167h4.996c.833 0 1.11-.28 1.11-1.121v-.924c0-.841-.277-1.122-1.11-1.122Zm1.437 7.126v-1.37c0-.84-.278-1.12-1.11-1.12h-5.323v3.612h5.323c.832 0 1.11-.28 1.11-1.122ZM152.266 34.963c.833.264 1.257.957 1.257 2.095v1.6c0 1.6-.751 2.342-2.318 2.342h-6.302c-1.568 0-2.319-.742-2.319-2.342V37.09h2.025v1.138c0 .841.277 1.122 1.11 1.122h4.604c.833 0 1.111-.28 1.111-1.122v-1.336c0-.841-.278-1.122-1.111-1.122h-3.167v-1.534h3.004c.833 0 1.11-.28 1.11-1.121v-.89c0-.842-.277-1.123-1.11-1.123h-4.278c-.832 0-1.11.28-1.11 1.122v1.006h-2.024v-1.435c0-1.6.751-2.342 2.318-2.342h5.976c1.567 0 2.318.742 2.318 2.342v1.138c0 1.072-.359 1.749-1.094 2.03ZM164.141 34.023v-4.569h2.09V41h-2.09v-5.097h-6.596V41h-2.09V29.454h2.09v4.569h6.596ZM176.404 41h-5.192c-2.09 0-3.037-.957-3.037-3.068v-5.41c0-2.111.947-3.068 3.037-3.068h5.192c2.09 0 3.037.957 3.037 3.068v5.41c0 2.111-.947 3.068-3.037 3.068Zm-4.506-1.814h3.82c1.192 0 1.633-.446 1.633-1.65v-4.618c0-1.204-.441-1.65-1.633-1.65h-3.82c-1.192 0-1.633.413-1.633 1.65v4.618c0 1.237.441 1.65 1.633 1.65ZM189.07 41h-4.8c-2.09 0-3.037-.957-3.037-3.068v-5.41c0-2.111.947-3.068 3.037-3.068h4.8c2.09 0 3.037.957 3.037 3.068v1.22h-2.025v-.857c0-1.204-.44-1.65-1.632-1.65h-3.494c-1.192 0-1.633.446-1.633 1.65v4.684c0 1.204.441 1.65 1.633 1.65h3.494c1.192 0 1.632-.446 1.632-1.65v-1.006h2.025v1.37c0 2.11-.947 3.067-3.037 3.067ZM205.593 41h-2.318l-1.11-2.557h-6.188L194.883 41h-2.221l5.323-11.546h2.302L205.593 41Zm-6.514-9.732-2.4 5.575h4.8l-2.4-5.575Z" fill="#000"/><path d="M4.273 19.793H.261V3.3h11.336c2.869 0 4.058 1.178 4.058 4.1v3.11c0 2.922-1.19 4.1-4.058 4.1H4.273v5.184Zm0-13.337v5.137h5.761c1.236 0 1.61-.4 1.61-1.65V8.107c0-1.25-.374-1.65-1.61-1.65H4.273ZM33.567 19.793h-4.455l-1.19-3.04h-7.86l-1.189 3.04h-4.245L21.858 3.3h4.502l7.207 16.494ZM23.981 6.81l-2.729 6.927h5.481L23.981 6.81ZM45.282 19.793h-6.904c-3.08 0-4.525-1.437-4.525-4.571V7.87c0-3.134 1.446-4.571 4.525-4.571h6.904c3.078 0 4.524 1.437 4.524 4.571v1.932h-3.871V8.624c0-1.437-.49-1.932-1.913-1.932h-4.245c-1.4 0-1.912.495-1.912 1.932v5.844c0 1.437.513 1.932 1.912 1.932h4.245c1.423 0 1.913-.495 1.913-1.932v-1.343h3.871v2.097c0 3.134-1.446 4.571-4.524 4.571ZM63.39 19.793h-6.904c-3.08 0-4.525-1.437-4.525-4.571V7.87c0-3.134 1.446-4.571 4.525-4.571h6.904c3.078 0 4.524 1.437 4.524 4.571v1.932h-3.871V8.624c0-1.437-.49-1.932-1.913-1.932h-4.245c-1.4 0-1.913.495-1.913 1.932v5.844c0 1.437.514 1.932 1.913 1.932h4.245c1.423 0 1.913-.495 1.913-1.932v-1.343h3.871v2.097c0 3.134-1.446 4.571-4.525 4.571ZM74.29 19.793H70.28V3.3h11.335c2.869 0 4.058 1.178 4.058 4.1v3.11c0 2.922-1.189 4.1-4.058 4.1H74.29v5.184Zm0-13.337v5.137h5.761c1.237 0 1.61-.4 1.61-1.65V8.107c0-1.25-.373-1.65-1.61-1.65h-5.76ZM99.46 19.793h-7.51c-3.079 0-4.525-1.437-4.525-4.571V7.87c0-3.134 1.446-4.571 4.525-4.571h7.51c3.079 0 4.525 1.437 4.525 4.571v7.352c0 3.134-1.446 4.571-4.525 4.571Zm-6.11-3.44h4.71c1.424 0 1.913-.519 1.913-1.932V8.67c0-1.414-.49-1.932-1.912-1.932h-4.712c-1.4 0-1.912.518-1.912 1.932v5.75c0 1.414.513 1.932 1.912 1.932ZM121.121 19.793h-4.011v-5.372h-7.324c-2.869 0-4.058-1.178-4.058-4.1V3.299h4.011v5.89c0 1.25.374 1.65 1.61 1.65h5.761V3.3h4.011v16.494ZM132.274 11.24l8.046 8.553h-5.364l-7.207-8.035v8.035h-4.012V3.3h4.012v7.634l7.09-7.634h5.388l-7.953 7.94ZM159.457 19.793h-4.455l-1.189-3.04h-7.86l-1.19 3.04h-4.245L147.749 3.3h4.501l7.207 16.494ZM149.871 6.81l-2.729 6.927h5.481l-2.752-6.927ZM178.997 19.793h-7.053c-3.694 0-5.43-1.725-5.43-5.485V5.486c0-3.761 1.736-5.486 5.43-5.486h7.053c3.695 0 5.43 1.725 5.43 5.486v8.822c0 3.76-1.735 5.485-5.43 5.485Zm-5.541-4.015h4.03c1.707 0 2.295-.594 2.295-2.319V6.334c0-1.725-.588-2.319-2.295-2.319h-4.03c-1.708 0-2.295.594-2.295 2.319v7.125c0 1.725.587 2.319 2.295 2.319ZM193.41 11.197h-3.414c-1.96 0-2.939-.99-2.939-2.969V5.231c0-1.98.979-2.969 2.939-2.969h3.414c1.959 0 2.939.99 2.939 2.969v2.997c0 1.98-.98 2.97-2.939 2.97Zm-1.315 8.596h-2.575l14.442-17.53h2.575l-14.442 17.53ZM190.751 8.88h1.904c.867 0 1.175-.311 1.175-1.188V5.768c0-.905-.308-1.187-1.175-1.187h-1.904c-.867 0-1.175.282-1.175 1.187v1.923c0 .82.364 1.188 1.175 1.188Zm15.31 10.914h-3.414c-1.96 0-2.939-.99-2.939-2.969v-2.997c0-1.98.979-2.97 2.939-2.97h3.414c1.959 0 2.939.99 2.939 2.97v2.997c0 1.98-.98 2.97-2.939 2.97Zm-2.659-2.319h1.903c.868 0 1.176-.31 1.176-1.187v-1.923c0-.905-.308-1.187-1.176-1.187h-1.903c-.867 0-1.175.282-1.175 1.187v1.923c0 .82.364 1.188 1.175 1.188Z" fill="#C51F2A"/></svg>